<svg viewBox="0 0 128 128"><path fill="#181616" d="M64 0C28.7 0 0 28.7 0 64c0 28.3 18.3 52.3 43.8 60.8 3.2.6 4.3-1.4 4.3-3v-10.8c-17.8 3.9-21.5-8.6-21.5-8.6-2.9-7.5-7.1-9.5-7.1-9.5-5.8-4 0-3.9 0-3.9 6.4.5 9.8 6.6 9.8 6.6 5.7 9.7 15 6.9 18.7 5.3.6-4.1 2.2-6.9 4-8.5-14.2-1.6-29.2-7.1-29.2-31.7 0-7 2.5-12.7 6.6-17.2-.7-1.6-2.9-8.2.6-17.2 0 0 5.4-1.7 17.6 6.6a60.7 60.7 0 0 1 32 0c12.2-8.3 17.6-6.6 17.6-6.6 3.5 9 1.3 15.6.6 17.2 4.1 4.5 6.6 10.2 6.6 17.2 0 24.7-15 30.1-29.3 31.7 2.3 2 4.3 5.8 4.3 11.8v17.5c0 1.6 1.1 3.6 4.4 3C109.7 116.3 128 92.3 128 64 128 28.7 99.3 0 64 0z"/></svg>
