<svg viewBox="0 0 128 128"><path fill="#306998" d="M63.4 0C39.8 0 38 11.6 38 11.6l.1 11.9h25v3H27.3S9.1 24.9 9.1 48.8v23.8c0 23.9 18.2 24.2 18.2 24.2h10.9V85.3s-.6-18.2 18.1-18.2h31.8s17.7.3 17.7-17.1V17.1S98.7 0 63.4 0zM47.5 10.3c3.1 0 5.6 2.6 5.6 5.8s-2.5 5.8-5.6 5.8-5.6-2.6-5.6-5.8 2.5-5.8 5.6-5.8z"/><path fill="#FFD43B" d="M64.6 128c23.6 0 25.4-11.6 25.4-11.6l-.1-11.9h-25v-3h35.8s18.2-2.4 18.2-26.3V51.4c0-23.9-18.2-24.2-18.2-24.2h-10.9v11.5s.6 18.2-18.1 18.2H39.9s-17.7-.3-17.7 17.1v32.9S29.3 128 64.6 128zM80.5 117.7c-3.1 0-5.6-2.6-5.6-5.8s2.5-5.8 5.6-5.8 5.6 2.6 5.6 5.8-2.5 5.8-5.6 5.8z"/></svg>
